<svg xmlns="http://www.w3.org/2000/svg" width="188" height="257" viewBox="0 0 188 257">
  <metadata><?xpacket begin="﻿" id="W5M0MpCehiHzreSzNTczkc9d"?>
<x:xmpmeta xmlns:x="adobe:ns:meta/" x:xmptk="Adobe XMP Core 5.6-c142 79.160924, 2017/07/13-01:06:39        ">
   <rdf:RDF xmlns:rdf="http://www.w3.org/1999/02/22-rdf-syntax-ns#">
      <rdf:Description rdf:about=""/>
   </rdf:RDF>
</x:xmpmeta>
                                                                                                    
                                                                                                    
                                                                                                    
                                                                                                    
                                                                                                    
                                                                                                    
                                                                                                    
                                                                                                    
                                                                                                    
                                                                                                    
                                                                                                    
                                                                                                    
                                                                                                    
                                                                                                    
                                                                                                    
                                                                                                    
                                                                                                    
                                                                                                    
                                                                                                    
                                                                                                    
                           
<?xpacket end="w"?></metadata>
<defs>
    <style>
      .cls-1 {
        fill: #020202;
        fill-rule: evenodd;
      }
    </style>
  </defs>
  <path id="Forme_1" data-name="Forme 1" class="cls-1" d="M272,192l-1-7-3-1,2-4,1-3-4-4v-3h4l1-13h1V123s-2.984-13.785-17-5L232,81,208,71l-28,1L156,87l-29,44-1,24s-23.46,20.14-23,52c0,0,2.6,6.813,3,11s-2.806,10.121-3,15l-1,3-2,1-1,8s-10.114,20.783-11,28c0,0,16.375,14.908,50,10l1-3s5.912,11.485,33,11c0,0-5.539,17.926-5,37h58s0.018-22.169-6-38c0,0,26.584,2.033,29-6l4-1,14-20v-4h10" transform="translate(-88 -71)"/>
</svg>
