<?xml version="1.0" standalone="no"?>
<!DOCTYPE svg PUBLIC "-//W3C//DTD SVG 20010904//EN"
 "http://www.w3.org/TR/2001/REC-SVG-20010904/DTD/svg10.dtd">
<svg version="1.0" xmlns="http://www.w3.org/2000/svg"
 width="200.000000pt" height="200.000000pt" viewBox="0 0 200.000000 200.000000"
 preserveAspectRatio="xMidYMid meet">
<metadata>
Created by potrace 1.11, written by Peter Selinger 2001-2013
</metadata>
<g transform="translate(0.000000,200.000000) scale(0.100000,-0.100000)"
fill="#161616" stroke="none">
<path d="M560 1751 l-435 -248 0 -503 0 -503 437 -249 438 -248 438 248 437
249 0 503 0 503 -430 245 c-236 134 -434 246 -440 247 -5 2 -206 -108 -445
-244z m855 -59 l400 -227 0 -465 0 -465 -400 -227 c-220 -125 -407 -228 -415
-228 -8 0 -195 103 -415 228 l-400 227 0 465 0 465 400 227 c220 125 407 228
415 228 8 0 195 -103 415 -228z"/>
<path d="M854 1668 c-30 -27 -39 -30 -55 -20 -26 17 -31 15 -24 -7 3 -10 0
-31 -6 -45 -12 -25 -16 -26 -77 -24 -73 3 -90 -10 -40 -31 l33 -13 -65 -12
c-74 -13 -131 -44 -148 -81 -13 -28 -11 -29 39 -15 26 7 46 7 65 0 l28 -11
-40 -18 c-44 -20 -128 -109 -130 -138 -1 -10 -7 -30 -13 -46 -8 -20 -7 -34 1
-52 13 -29 23 -32 32 -8 5 13 9 14 19 4 21 -21 15 -150 -10 -199 -22 -45 -13
-55 22 -22 l22 21 22 -59 c22 -57 73 -132 91 -132 5 0 -2 24 -15 53 -34 72
-32 106 2 45 14 -27 29 -48 33 -48 4 0 5 35 2 78 -5 94 8 136 40 127 18 -6 20
-5 12 11 -16 34 -8 117 15 164 26 50 78 110 97 110 7 0 24 -19 37 -43 43 -72
78 -90 56 -29 -6 17 -9 41 -7 54 3 20 6 18 26 -19 42 -80 175 -203 197 -182 2
3 -11 24 -30 48 -44 55 -77 125 -73 152 3 19 12 14 75 -45 69 -64 72 -66 75
-41 3 26 4 25 57 -27 57 -57 90 -115 91 -162 0 -25 3 -28 25 -24 24 5 25 4 25
-51 -1 -31 -8 -74 -16 -96 -25 -65 -27 -75 -16 -75 6 0 24 13 40 29 l29 30 -7
-40 c-5 -29 -4 -39 5 -39 14 0 35 50 35 82 0 11 11 23 26 28 22 9 24 13 13 26
-13 15 -17 120 -5 131 3 3 12 0 21 -7 22 -18 37 30 33 108 -3 64 -1 71 20 50
18 -18 25 -3 12 23 -11 20 -10 21 6 14 50 -20 55 -19 44 9 -15 41 -40 77 -84
123 l-40 43 29 30 29 30 -27 0 c-16 0 -27 6 -27 13 0 9 -11 12 -32 9 -30 -3
-35 1 -53 39 -25 54 -43 71 -64 64 -19 -6 -86 18 -96 34 -3 5 2 14 11 19 50
28 -231 53 -334 30 l-32 -8 15 30 c27 52 13 55 -41 8z"/>
<path d="M1362 657 c-7 -16 -12 -30 -12 -33 0 -3 -5 -10 -10 -17 -6 -7 -28
-39 -50 -73 -46 -73 -96 -125 -113 -118 -7 2 -24 -7 -38 -20 -15 -14 -35 -25
-45 -24 -11 0 -26 -2 -35 -6 -24 -10 -43 18 -30 43 18 32 13 41 -24 41 -38 0
-41 -6 -26 -58 10 -35 -4 -51 -31 -38 -24 11 -53 31 -60 41 -5 6 -12 5 -20 -3
-18 -18 -27 -15 -38 13 -7 18 -16 24 -32 22 -19 -2 -29 10 -60 73 -20 41 -37
85 -38 98 0 12 -5 22 -10 22 -6 0 -16 11 -22 25 -6 14 -15 25 -20 25 -13 0 -2
-33 38 -120 70 -150 96 -196 122 -218 15 -12 45 -37 67 -56 40 -34 41 -34 137
-32 l96 1 69 70 c38 40 83 99 103 136 19 36 50 94 68 128 18 35 31 72 29 84
-3 20 -4 20 -15 -6z"/>
<path d="M950 585 c-19 -8 -44 -14 -56 -14 -24 -1 -64 -40 -64 -64 0 -20 4
-21 29 -7 10 5 49 16 86 23 55 11 76 12 121 1 66 -15 63 -14 92 -25 31 -12 32
-12 32 9 0 28 -32 51 -91 69 -76 22 -109 23 -149 8z"/>
</g>
</svg>
